<?xml version="1.0" encoding="UTF-8" standalone="no"?>
<!-- Created with Inkscape (http://www.inkscape.org/) -->

<svg
   width="210mm"
   height="297mm"
   viewBox="0 0 210 297"
   version="1.1"
   id="svg1"
   xml:space="preserve"
   inkscape:version="1.4 (86a8ad7, 2024-10-11)"
   sodipodi:docname="tiger.svg"
   xmlns:inkscape="http://www.inkscape.org/namespaces/inkscape"
   xmlns:sodipodi="http://sodipodi.sourceforge.net/DTD/sodipodi-0.dtd"
   xmlns="http://www.w3.org/2000/svg"
   xmlns:svg="http://www.w3.org/2000/svg"><sodipodi:namedview
     id="namedview1"
     pagecolor="#505050"
     bordercolor="#eeeeee"
     borderopacity="1"
     inkscape:showpageshadow="0"
     inkscape:pageopacity="0"
     inkscape:pagecheckerboard="0"
     inkscape:deskcolor="#505050"
     inkscape:document-units="mm"
     inkscape:zoom="0.71891835"
     inkscape:cx="396.42889"
     inkscape:cy="561.25984"
     inkscape:window-width="1920"
     inkscape:window-height="1046"
     inkscape:window-x="-11"
     inkscape:window-y="-11"
     inkscape:window-maximized="1"
     inkscape:current-layer="layer1" /><defs
     id="defs1" /><g
     inkscape:label="Capa 1"
     inkscape:groupmode="layer"
     id="layer1"><path
       style="fill:#3e2223;stroke:none;stroke-width:1.75706"
       d="m 25.964168,51.773022 -1.232362,0.52613 v 0.526109 l 3.286285,3.156697 -5.751006,-1.578349 c 0.688011,5.571077 4.844641,8.961279 8.626525,11.048437 L 14.051342,77.026592 v 0.52613 L 28.018091,78.07883 15.694484,95.96679 v 0.526109 l 2.875519,-1.052239 -12.7344047,13.67902 7.8049617,-3.6828 c -7.9297581,14.47437 -13.96676599,26.96508 -13.96676599,45.24597 h 0.41079774 c 0.97216355,-4.29411 2.47296525,-7.34782 4.92944295,-10.52231 -1.5720505,9.75996 -0.6113908,17.17177 0.2814676,26.83192 0.3026444,3.27436 -0.4642063,6.65479 -0.2117411,9.99619 0.4114174,5.44492 2.0643107,10.09509 3.2165585,15.25737 5.9777763,-2.96524 3.6970813,-9.21908 3.6970813,-15.78348 H 11.58662 l -2.0539402,7.36561 C 7.0114759,176.32297 6.7957914,166.8391 8.7111162,159.10071 H 8.3003197 l -2.053925,3.68281 C 6.1785423,152.2815 5.8959617,144.83634 9.1218986,134.89936 L 2.1385155,139.1083 C 2.6704454,123.48228 13.414457,113.36839 19.802363,101.75405 l -5.34024,1.05224 v -0.52611 C 19.571587,99.406166 26.556664,91.478773 28.83967,84.918333 l -4.51866,3.156716 10.680464,-14.205153 v -0.52611 l -11.091247,1.578349 v -0.52611 c 3.907846,-1.594892 9.077923,-6.307009 11.50203,-10.522327 l -6.983368,-4.735044 c 6.738246,0 12.153693,-2.323408 18.074614,-6.313393 V 51.773022 L 43.628,50.194677 52.665307,45.98576 V 45.45963 L 44.86036,41.250715 v -0.526129 h 4.518662 V 40.198477 L 37.876978,28.62393 43.628,29.15004 v -0.52611 l -9.037307,-11.57456 7.804946,0.526118 V 17.04937 L 29.250453,11.262095 v -0.526117 l 9.858885,1.052232 V 11.262095 L 31.304392,4.9487047 V 4.4225873 c 8.982889,2.1372195 19.122109,8.5757167 24.647215,18.4140597 l -4.107864,-1.578348 c 1.432442,4.743495 4.79201,9.10431 8.626526,10.522327 l 2.875503,-1.052239 V 28.62393 c 2.663886,-0.511772 4.505884,-3.846556 6.983386,-5.206391 10.235666,-5.618106 20.698286,-12.637022 31.630592,-6.894284 v 0.526115 c -2.856748,0.71397 -5.754003,-0.488128 -8.626523,-0.389704 -6.869412,0.235345 -14.408411,3.504239 -18.485421,10.912026 9.512087,-4.419992 16.975673,-6.313393 27.111944,-6.313393 v 1.052239 c -12.389361,0.691589 -27.934409,3.573241 -35.327677,17.887939 2.775827,-0.835417 5.02653,-3.438403 7.804947,-4.504442 5.703491,-2.188351 11.852893,-2.811736 17.663848,-4.636396 3.851306,-1.209328 8.928792,-3.062463 11.502032,1.775207 -9.702745,0.256472 -20.483385,4.689011 -28.344307,11.966711 -3.000805,2.778152 -6.654587,6.286966 -7.394159,11.182401 L 91.690069,42.466942 103.19211,37.56789 C 101.23695,50.4803 90.276159,55.422918 81.009601,57.410096 73.954506,58.923043 65.23916,61.736709 62.934991,71.765439 75.464968,67.186609 94.258019,66.256283 101.54895,49.668567 h 0.4108 c -0.16746,4.99422 0.10149,12.826525 -2.62068,16.685509 -2.107823,2.988014 -9.292567,6.514725 -9.735265,10.597033 -0.209893,1.935557 1.973865,1.813486 2.907837,1.756137 3.590542,-0.220421 5.753723,-2.332037 8.626528,-4.83735 l 0.41078,11.048437 c -4.758425,2.075186 -8.494833,5.836339 -9.037308,12.626804 h 0.410786 l 9.037322,-7.365631 c 0,9.73382 -0.15534,18.347434 2.87551,27.358024 -4.8045,0.90877 -11.901511,2.40317 -14.71481,-4.73705 -1.354065,-3.43671 0.69826,-8.11839 1.237764,-11.57254 1.078257,-6.903448 0.331855,-13.562994 0.331855,-20.518523 H 91.279283 L 87.99298,100.1757 h -0.410774 l -0.410799,-1.578343 -2.053918,8.943973 H 84.70669 l 1.232359,-9.996193 h -0.410787 l -2.464717,10.522303 h -0.410787 v -5.26115 h -0.410799 c -0.906649,3.11538 -1.485983,6.11835 -1.109046,9.47009 0.572882,5.09416 3.077429,8.29456 -0.123287,12.62678 -0.921604,-4.19036 -1.672086,-8.34459 -3.478067,-12.10067 -2.491963,-5.18281 -6.356465,-9.88932 -6.753252,-16.309591 -0.27271,-4.412475 1.120291,-8.291124 3.371545,-11.566434 0.525085,-0.76393 3.123595,-4.24757 3.801061,-1.922194 0.47869,1.643093 -1.450871,4.972348 -1.805432,6.649126 -0.815198,3.855008 -0.586104,7.81075 0.345483,11.574543 h 0.410799 c 0.07752,-4.657013 1.596687,-9.252288 4.146213,-12.604054 1.885869,-2.479284 4.950166,-2.851307 4.867002,-6.862647 -0.117423,-5.663103 -4.216667,-7.006096 -7.780856,-5.3257 -4.623513,2.179821 -8.002963,7.538708 -9.858888,13.217858 h -0.821579 l -0.410783,-5.787284 h -0.410781 c -3.461183,9.443185 -0.300827,15.005812 4.107866,22.622987 -3.376848,-0.55853 -6.94533,-0.54361 -10.26967,-1.29621 -1.858531,-0.42076 -3.66648,-1.15705 -5.340241,-2.27375 -12.316931,-8.217674 -1.284278,-26.214799 0,-37.993204 -8.28918,6.129638 -16.467304,20.272533 -15.934785,33.145311 0.215156,5.200863 1.939624,9.597943 3.611178,14.205133 h 0.410798 L 41.984876,100.1757 h 0.410782 l 1.23236,4.20894 H 44.0388 l 2.053939,-5.261154 c 0.176996,2.596304 1.676292,5.393524 1.551867,7.891744 -0.142992,2.87131 -2.380106,5.96944 -2.916087,8.94396 -1.39695,7.75284 1.631622,19.57572 7.116827,23.88065 3.643952,2.85985 8.049928,2.51487 11.911226,4.52961 v 1.05224 l -5.340224,1.57834 v 0.52612 c 4.156956,1.43169 7.887947,-1.13661 10.589173,-5.26116 0.965518,-1.47424 3.820725,-6.15067 1.323649,-6.8395 v -0.52613 l 3.28629,-1.05221 -4.986486,15.25735 -3.164904,11.02774 -4.583001,6.86022 H 60.4703 C 62.797742,153.1781 53.914498,154.4428 46.914331,149.74387 41.916637,146.38912 37.951207,139.83988 36.644648,132.79491 h -0.410782 c -0.553122,8.48977 2.333622,21.64873 9.448105,24.6093 4.645988,1.93335 9.571379,-1.75969 13.456758,3.90001 1.768451,2.57606 -0.257355,6.27343 -2.371535,7.3222 -2.003869,0.99404 -4.544387,-0.0938 -6.566578,-0.58175 l 0.410798,1.05224 -1.232361,-1.57834 h -0.410797 v 1.57834 l 11.912826,6.8395 2.464722,-7.3656 h 0.410781 c -1.049435,7.34895 3.357269,7.09527 6.983384,10.72773 6.722947,6.73465 12.251325,15.1512 21.360925,16.10417 v -0.52612 c -9.111717,-2.41512 -13.743963,-11.03563 -20.539352,-18.16966 -2.275147,-2.38854 -6.65524,-4.18182 -6.436932,-8.66226 0.35565,-7.29848 7.058606,-8.53894 9.48964,-14.29446 1.808989,-4.2828 2.601175,-9.25239 4.51578,-13.58967 0.612495,-1.38752 1.397936,-4.05942 2.7443,-4.49229 3.66853,-1.17949 7.911932,10.63397 8.994205,13.96237 h 0.410786 c -1.7405,-9.63098 -7.090385,-17.49364 -4.518662,-27.88415 3.820058,4.49243 9.829305,10.07677 14.788321,12.10068 l -1.643135,-5.78729 10.269675,-0.52611 -3.2863,7.89174 10.26967,-7.89174 -3.2863,12.62679 6.98338,-5.78729 -5.34022,9.47009 5.34022,-4.73504 -3.2863,10.52232 h 0.4108 v -1.05224 h 0.41078 c -1.36684,7.56697 -1.60052,13.31957 -0.82158,21.04464 h 0.4108 l 3.28629,-18.41405 h 0.4108 v 5.78727 h 0.41077 v -2.10446 h 0.41079 l 2.46471,6.8395 h 0.4108 v -5.78727 h 0.41079 l 1.64314,8.41786 h -0.41078 l -0.41079,-2.63059 h -0.41078 c 0,3.81678 0.65714,9.25084 -2.08818,11.92531 -1.69156,1.64793 -5.64886,-0.0764 -7.77072,0.21921 -6.82425,0.95091 -11.80261,4.83415 -18.896195,1.82678 -3.990874,-1.69196 -6.696607,-0.98573 -10.680456,-1.40297 -1.125098,-0.11771 -2.263952,-2.14252 -2.875504,-0.99376 h -0.410799 l -0.410786,-10.52233 -1.232359,1.05224 2.875504,-17.36183 h -0.410773 c -5.044971,9.58573 -12.679858,30.73632 -1.232372,38.40646 l -0.821572,-3.6828 c 5.151415,5.70702 11.085007,9.88508 16.036869,15.68683 1.516926,1.7773 3.796473,2.99852 4.782673,5.40529 1.69773,4.1432 -1.11041,7.71295 -3.566481,9.92558 -5.22169,4.70408 -11.863946,5.81041 -18.074621,5.81041 v -0.52611 h 1.643132 v -0.52613 c -4.770233,0 -8.682889,-0.50088 -12.734387,-4.08998 -1.995436,-1.76772 -4.713211,-7.01686 -6.999542,-7.54872 -3.002349,-0.6984 -6.73674,5.33607 -7.378002,8.482 h 0.410781 c 2.373958,-3.85025 3.58803,-2.08791 3.990288,2.10449 0.438246,4.56757 -0.293205,9.56631 -0.293205,14.20512 H 60.4703 l 2.875504,-6.83952 c 0.465602,4.05291 1.631513,7.95061 3.773158,11.04641 1.11348,1.60957 4.238347,3.6469 4.505983,5.83844 0.251864,2.06239 -1.68606,4.48509 -2.315431,6.26427 -1.265136,3.57636 -1.44505,7.19398 -1.44505,11.04843 h -0.410796 l -5.340226,-15.25737 h -0.410781 l -0.410798,10.52233 h -0.410781 l -3.697083,-15.78348 h -0.410781 l -1.232361,7.89174 c -2.908667,-8.40409 -3.352068,-15.78206 -2.464722,-24.72746 -6.308242,5.7393 -7.05092,16.2433 -6.161804,25.25357 h -0.410796 l -4.518647,-11.57454 h -0.410796 c -1.583913,10.46056 4.132348,19.50085 11.912825,23.14911 -4.626161,-8.99473 -6.432201,-15.7122 -4.518661,-26.30582 h 0.410797 c 0.0047,9.89894 4.508663,17.34344 8.626525,25.25358 2.097412,4.02903 4.322136,8.67838 7.394165,11.57455 l -2.464722,-12.10066 6.983363,10.52231 0.821585,-9.4701 h 0.410787 l 4.737046,15.25738 1.424748,11.04844 h 0.410799 l 1.643145,-8.94398 c 3.836236,10.34022 14.064801,19.63547 22.593286,22.623 l -2.464721,-7.36563 c 4.984151,4.81086 5.856301,4.50129 10.680461,-0.52611 l -2.87551,7.89174 c 10.53935,-3.20623 15.52213,-14.29608 23.41486,-22.09688 l 0.82157,8.41786 h 0.41079 l 6.57258,-26.30582 h 0.41079 l 0.41079,9.99622 c 3.15945,-2.85042 5.66912,-6.70526 6.57258,-11.57457 h 0.4108 l -2.05394,12.10068 c 5.32844,-4.82052 10.19725,-15.15749 13.03266,-22.62297 1.13791,-2.99612 1.13461,-7.80843 -1.11984,-9.99622 l -2.05394,10.52232 h -0.41077 l -0.82159,-7.89174 h -0.41077 l -4.10789,16.30959 h -0.41077 l -0.82159,-12.10065 h -0.41077 l -3.28631,13.67899 h -0.41078 c 0.53128,-6.37507 -0.48454,-16.57367 3.2863,-21.57074 v 2.63057 h 0.41079 c 1.43171,-4.13667 2.26025,-8.55666 3.84921,-12.62679 0.73759,-1.88936 2.30858,-4.12444 2.34649,-6.31339 0.0303,-1.74644 -2.30862,-6.82152 -3.73099,-5.78726 h -0.41078 c -0.3908,-3.21641 -2.32264,-4.57346 -4.51866,-5.78728 -1.79368,10.06444 -13.02719,11.39375 -19.307,11.04843 v 0.52611 l 2.46473,0.52613 v 0.52611 c -5.92738,-8.4e-4 -12.6965,-1.51487 -17.66383,-5.90338 -2.30947,-2.04036 -5.03878,-5.45561 -3.56619,-9.35359 1.06489,-2.81874 3.39653,-4.12767 5.12344,-6.13923 4.77762,-5.56512 10.68698,-8.78685 15.28501,-14.90581 l -1.23236,4.20894 c 5.71163,-5.15294 7.8042,-12.94784 7.80495,-21.57076 h -0.41078 v 2.10445 h -0.4108 c -1.29977,-7.19225 -2.92956,-11.92284 -2.46472,-19.46629 h 0.4108 c 1.50299,4.59918 3.76527,10.47619 6.64389,13.8816 1.77576,2.10071 6.21826,4.2254 6.97926,7.21787 1.03386,4.06528 -4.1941,6.55167 -6.05466,8.51973 -6.69274,7.07945 -11.36228,15.60703 -20.3029,18.25736 v 0.52612 c 9.05527,-1.49774 14.41722,-9.54363 21.36093,-16.1249 3.51756,-3.33393 7.84969,-3.81774 6.57259,-10.707 h 0.41078 c 0.53186,1.75569 1.04177,4.65279 2.31607,5.77063 2.68358,2.35407 8.11908,-1.42073 10.41833,-3.14007 l -0.41078,-1.05222 v -0.52613 l 2.87551,-1.05221 v -0.52614 c -4.94121,0.12303 -7.65796,-0.0597 -11.91283,-3.15669 1.52858,-10.45716 10.11593,-4.79418 15.19911,-7.84911 7.2164,-4.33694 8.62652,-16.36228 8.62652,-25.2962 h -0.41077 c -0.8836,7.5551 -5.43815,14.81046 -10.68047,18.21757 -5.98384,3.88904 -15.56006,3.21034 -12.73439,15.45387 l -1.23235,1.05221 -3.99347,-6.36047 -4.63306,-16.78862 c 3.39956,2.82626 7.90997,6.14994 11.91282,3.6828 v -0.5261 l -5.75102,-1.05224 v -1.05224 c 3.8118,-1.33204 8.61724,-1.66544 11.9125,-4.62992 7.60582,-6.84227 9.45004,-21.56169 4.51897,-31.14596 h -0.41078 c -0.0564,8.71626 -2.3172,18.51191 -7.80494,24.20134 l 0.41077,-1.05224 h -0.41077 v 1.57834 c -3.17629,0.9743 -4.97917,1.84071 -8.21575,0.52614 -0.80508,-0.32701 -3.19001,-0.9143 -2.46472,-2.10448 v -0.52611 h -1.64317 c 2.42934,-1.57046 5.15756,-2.37245 7.39416,-4.45048 6.59639,-6.1288 12.59097,-17.72554 14.78833,-27.642594 h 0.41078 l 1.23236,5.261154 h 0.41078 l 1.23236,-4.20894 h 0.4108 l -1.23236,12.10068 h 0.41079 c 5.69936,-12.508651 3.53823,-26.397299 -3.47713,-37.354245 -2.03155,-3.173022 -5.40876,-8.419799 -8.84649,-8.41785 l 1.64315,6.839501 c 1.87191,2e-5 0.74298,4.179765 1.30082,5.787283 2.14359,6.177202 4.56173,13.879124 0.89005,19.992417 -4.88073,8.126344 -13.61511,5.201994 -20.26549,7.891744 5.00205,-6.54143 8.90711,-14.186843 4.92945,-23.149117 h -0.4108 l -0.41079,5.787284 h -0.82157 c -1.39999,-5.626853 -5.46392,-11.336606 -9.85889,-13.278764 -3.45371,-1.526211 -7.29681,-0.585168 -7.72284,4.860894 -0.35688,4.561908 2.74384,4.716234 4.77158,7.415164 2.63114,3.502014 4.10562,8.288837 4.18362,13.103359 h 0.4108 c 1.18644,-7.365907 0.84279,-13.043049 -2.46473,-19.466284 4.41103,-1.035755 8.1382,7.108383 8.37581,12.100675 0.33655,7.071839 -4.08333,12.521379 -6.89781,17.887939 -1.93547,3.69052 -2.67827,7.87661 -3.53193,12.10068 -3.23779,-4.66995 -0.50001,-8.33281 -0.0715,-13.67903 0.24377,-3.04226 -0.64721,-5.92626 -0.74995,-8.94398 h -0.41077 l -0.82159,4.20894 h -0.41078 l -0.82158,-3.1567 h -0.41078 l 0.41078,4.73504 c -2.12397,-3.08638 -3.02788,-9.626894 -3.28629,-13.679017 h -0.4108 v 4.208934 h -0.41077 l -2.87555,-17.887958 h -0.4108 c -0.66997,10.872357 0.15922,18.8774 2.05394,29.462501 h -0.41085 l -1.64316,-5.26115 h -0.41078 c 0.54166,2.40806 2.37746,5.32355 1.9151,7.89134 -1.22347,6.79464 -13.31825,11.03253 -17.93579,11.04884 l 5.75103,-6.3134 -1.23237,-0.52611 c 2.22999,-6.6209 2.52935,-19.3287 1.23237,-26.305804 l 9.85888,6.839502 c -0.48196,-3.584794 -1.76369,-6.954514 -4.10945,-9.134772 -1.33848,-1.244028 -3.97384,-1.873478 -4.74212,-3.864672 -0.91415,-2.369262 0.22505,-7.460759 0.22505,-10.149668 3.28475,3.485032 7.60301,6.42415 11.9128,4.208934 -1.78005,-6.687642 -11.05872,-7.398361 -11.50203,-14.731242 l -1.23236,-13.679021 c 11.02973,15.336591 24.24196,16.694794 39.02476,22.096872 -2.97492,-15.074215 -19.54507,-13.144623 -28.34429,-17.9671 -2.79335,-1.530903 -7.6534,-3.765563 -8.62652,-7.812579 l -1.64316,-2.104479 h -0.41079 l -0.41077,1.05224 -0.4108,-6.839502 c 5.55314,2.018237 10.92741,3.947113 16.02069,7.52962 5.71604,4.020569 12.59256,9.964403 19.30698,10.358319 -0.9362,-4.610845 -4.53182,-7.993869 -7.39415,-10.717179 -8.06818,-7.676229 -19.10802,-12.325312 -29.16588,-12.431933 2.65639,-6.806176 12.94537,-1.526291 16.84226,0.923962 3.87935,2.439177 7.53078,1.486798 11.50203,3.153057 8.58296,3.601259 14.29163,12.381171 17.66385,22.754897 l 0.82156,-1.052218 c 1.68379,3.445342 4.44171,7.121168 7.39417,8.797409 1.33336,0.756991 2.85233,0.49845 4.10788,1.516248 3.68966,2.991037 7.80776,10.114492 9.0373,15.466022 h -0.41077 l -1.23236,-2.104457 c 5.72311,29.397144 15.61227,72.739944 -11.09126,91.018084 v 0.52611 c 3.58806,0 7.12133,-0.10562 10.68046,0.5261 1.52249,0.27022 3.73099,1.41717 5.22295,0.71409 1.90854,-0.89937 3.6396,-4.17298 5.04673,-5.97524 2.10957,-2.70201 4.39825,-5.27296 5.45909,-8.94398 1.33531,-4.6207 0.66924,-9.95714 0.32266,-14.73124 -0.78381,-10.79652 -2.6459,-21.36327 -3.72783,-32.09307 l 7.80497,2.63057 v -0.52611 c -10.67527,-9.33836 -11.25079,-28.771953 -17.94818,-42.089294 -1.95108,-3.879624 -4.16754,-9.04026 -7.52062,-11.048437 l 2.8755,7.365632 h -0.41077 c -3.51214,-9.032129 -12.23437,-13.302725 -14.91607,-22.623003 -1.80551,-6.275035 0.95544,-9.8199 2.87456,-15.257352 3.53645,-10.01994 7.02359,-19.939848 15.32781,-25.2576516 2.24735,-1.439177 4.60306,-1.3742475 6.98337,-2.1003871 v 0.5261174 c -3.1599,1.6938524 -6.52814,4.3881079 -8.62654,7.8917393 l 9.85889,-2.104466 v 0.526117 l -11.91281,5.787275 v 0.526118 l 7.80495,-0.526118 -9.03731,11.174699 -4.51866,5.134905 -3.2863,0.52611 v 0.526109 l 6.1618,-1.052219 v -0.526128 l -1.23236,-0.52611 h 2.05394 v -0.52611 l -1.64314,-0.526129 v -0.52611 h 2.05392 c -0.28105,-1.799764 0.62118,-1.07775 0.4108,0 0.7847,-0.304553 1.36944,-0.518413 0.41079,-1.052238 V 29.15004 l 4.92943,-0.52611 -11.50203,11.574547 v 0.526109 h 4.51865 l -7.39416,4.735044 v 0.52613 l 8.62652,3.156698 -2.8755,2.630564 c 3.98129,5.948369 12.32857,7.365632 18.07463,7.365632 l -6.5726,4.735044 v 1.052238 l 11.50204,9.470089 v 0.52611 l -10.68046,-1.052239 9.85889,14.205153 -4.51867,-3.156716 c 2.7261,6.839461 9.0355,13.958224 14.37755,17.361847 v 0.52611 l -5.34022,-1.05224 c 2.31557,4.17531 5.64865,7.45486 8.11904,11.57457 4.8699,8.12123 7.58625,16.18698 9.95557,25.77968 l -6.98337,-3.68281 c 3.23537,10.10292 2.63445,17.35189 2.46473,27.88414 h -0.4108 l -1.23237,-3.6828 h -0.41077 c 1.85724,8.46461 0.67209,15.85685 -0.82159,24.20132 h -0.41077 l -1.64315,-6.8395 h -0.4108 c -0.0237,3.67822 -3.0989,14.1939 1.64316,13.67902 l 0.41079,2.10447 h 0.82157 c 3.57208,-8.5816 3.20759,-15.95904 3.53701,-25.25357 0.14315,-4.03647 1.54697,-7.99977 1.76645,-12.10068 0.28203,-5.26937 -0.86608,-10.09072 -1.1956,-15.25735 2.33826,3.1385 4.35721,6.58796 4.51866,11.04843 h 0.41079 c 0,-17.06233 -4.39495,-32.95296 -13.96675,-45.24598 l 7.80494,3.15669 -12.73438,-13.67902 2.8755,1.052239 -5.02771,-6.404743 -6.88512,-12.009326 13.55598,-0.526108 v -0.52613 L 178.7769,65.978155 v -1.052219 c 3.76341,-1.418335 7.76873,-5.251091 8.21575,-10.522327 l -5.34025,1.578349 3.28631,-4.208936 -1.23236,-0.526108 c 6.6307,-7.752768 6.95509,-15.787777 8.40622,-26.305809 0.50386,-3.651985 2.55174,-7.856314 1.5747,-11.574546 C 192.464,8.7112818 188.35977,5.1280467 184.93871,3.4909037 167.1305,-5.031188 157.94996,20.650555 141.3953,20.197944 135.35339,20.032761 128.81992,14.243623 122.90989,12.253443 113.88126,9.2130881 103.85782,9.7087302 94.565586,10.230574 88.904168,10.548511 82.938447,13.091779 77.723323,15.788895 73.445919,18.001062 69.76917,20.938752 64.988914,19.975087 51.812133,17.31869 44.180936,0.57257126 30.072032,1.8390835 24.790696,2.3131785 17.385011,6.3967762 15.572777,13.366559 c -0.904222,3.477619 1.114256,7.649942 1.678324,11.048437 1.866404,11.244837 1.907438,18.617607 8.713067,27.358026 m 18.074613,-41.56316 -1.23236,-1.0522324 1.23236,1.0522324 m 0.410798,1.578348 0.821564,1.052234 -0.821564,-1.052234 m 1.23236,1.578349 0.410783,0.526115 -0.410783,-0.526115 M 143.86001,28.0978 c -6.1911,1.472105 -11.38701,-4.881017 -16.84226,-7.891733 v -0.526115 l 3.28629,0.526115 v -0.526115 l -15.6099,-5.787278 c 2.26106,-0.890292 5.56882,0.611983 7.80495,1.425723 6.28991,2.288944 17.50267,5.78846 21.36092,12.779403 m 17.5269,0.701494 0.27388,0.175382 -0.27388,-0.175382 m 2.19088,2.455203 v 0.526129 l -1.23237,0.52611 0.82157,0.52611 v 0.526128 l -1.64314,-0.526128 v -0.52611 l 2.05394,-1.052239 m 2.05392,0 0.4108,0.526129 -0.4108,-0.526129 m 17.25305,0.526129 -5.75101,5.787264 c 1.24051,-2.748225 3.06505,-5.98623 5.75101,-5.787264 m -22.1825,1.578348 -0.41077,0.52611 0.41077,-0.52611 m -56.68859,0.52611 c -0.38615,2.308017 -3.69423,2.069043 -5.340222,2.104457 l 5.340222,-2.104457 m 6.57261,1.578349 v 0.526108 l -5.75102,-0.526108 c 1.2719,-2.440232 3.89095,-0.546154 5.75102,0 m -43.954207,-1.05224 c -2.316016,3.393881 -5.725482,4.852742 -8.160906,7.989176 -2.104074,2.709728 -2.673389,6.94022 -4.659699,9.898385 -4.202803,6.259107 -9.78565,10.698785 -12.648189,18.414445 H 40.752496 L 43.628,61.769241 c -7.740359,7.604307 -11.700853,22.919761 -15.024462,34.197549 -2.241211,7.60494 -3.893949,15.44954 -10.033535,19.46629 v 0.52611 l 8.215728,-2.63057 c -2.933585,11.0952 -3.301749,24.18428 -4.17759,35.77588 -0.291312,3.8553 -1.016118,10.36901 1.568649,13.36156 1.139796,1.3196 3.616255,0.99913 5.073663,1.21948 4.372066,0.66105 8.432158,1.51761 12.734405,2.78078 -2.742261,-4.99056 -5.771595,-8.90226 -7.552342,-14.73124 -7.078774,-23.17132 -0.667314,-46.69494 3.444462,-69.447314 h -0.410782 l -0.410781,1.578347 h -0.410798 c 1.818243,-5.397343 5.502718,-12.244302 9.448105,-15.393363 1.568215,-1.251701 3.409141,-1.201533 4.929443,-2.702032 2.60377,-2.569839 4.373355,-6.195456 6.572585,-9.262651 v 4.208935 h 0.410798 l 5.751006,-14.205134 -2.464721,1.052239 6.161803,-13.152914 h -0.821563 m 36.560037,0 0.41079,0.52613 -0.41079,-0.52613 m 2.32779,0.175384 0.27386,0.175382 -0.27386,-0.175382 M 67.453636,37.0418 67.864434,37.56791 67.453636,37.0418 m 38.203194,0 0.41078,2.104457 h -0.41078 V 37.0418 m -74.76322,1.052239 0.410782,1.578348 -1.23236,-1.052239 0.821578,-0.526109 m 13.96675,2.104458 -0.410781,0.526109 0.410781,-0.526109 m 62.02884,2.630586 0.41077,0.52611 -0.41077,-0.52611 m 0.41077,6.313395 -0.41077,0.526109 0.41077,-0.526109 m 0.82159,8.417847 v 4.735044 h 0.41077 l -0.41077,-4.735044 m -55.045455,3.156697 -1.643159,2.104457 1.643159,-2.104457 m -2.875519,3.156696 -0.410783,0.52611 0.410783,-0.52611 m -0.821564,1.052238 -0.410798,0.52611 0.410798,-0.52611 m 5.340225,1.052219 -2.05394,2.630587 2.05394,-2.630587 m 100.642793,0.52613 1.23236,2.104457 -1.23236,-2.104457 m -101.053575,2.630567 0.410782,0.526129 -0.410782,-0.526129 m 23.825632,0 0.410786,0.526129 -0.410786,-0.526129 m 90.373133,1.052238 -0.4108,0.526109 0.4108,-0.526109 m -60.79647,3.682806 v 5.261173 h -0.41079 l 0.41079,-5.261173 m 48.47287,1.052239 0.41077,0.526108 -0.41077,-0.526108 m -103.929104,1.578348 0.410781,0.526109 -0.410781,-0.526109 m 6.572585,4.208934 -0.410782,1.052219 h 0.821579 l -0.410797,-1.052219 m 91.468559,0.701493 0.27387,0.175383 -0.27387,-0.175383 M 36.644617,83.866133 35.823053,86.49672 h -0.410796 l 1.23236,-2.630587 m 136.381263,0.52611 -0.41079,0.52611 0.41079,-0.52611 m 0.4108,1.052239 -0.4108,0.526109 0.4108,-0.526109 m -138.024423,1.578348 -0.410783,0.52611 0.410783,-0.52611 m 116.389643,11.399183 0.13694,0.350746 -0.13694,-0.350746 m -90.510067,0.175383 0.410796,0.526129 -0.410796,-0.526129 m 86.265267,0 0.41078,0.526129 -0.41078,-0.526129 m -20.81322,1.929094 0.13694,0.35075 -0.13694,-0.35075 m -9.9958,2.27984 0.41078,0.52611 -0.41078,-0.52611 m -39.846342,38.40646 c -0.05138,-3.1861 0.153082,-8.55427 -1.736968,-10.90188 -2.955966,-3.67157 -9.258529,-1.46628 -13.051048,-4.49878 -4.067606,-3.25244 -8.266016,-14.01087 -9.448415,-19.8491 7.586902,0.0278 6.210089,9.10683 10.718814,14.63422 3.985366,4.88579 9.30257,2.7529 13.088765,6.63085 2.923148,2.99398 3.69167,10.91044 0.428852,13.98469 m 49.705232,-35.24978 v 2.10445 h -0.4108 l 0.4108,-2.10445 m 30.39822,0.52611 c -2.55418,5.74821 -4.51833,13.94581 -8.62809,18.14166 -2.03491,2.07752 -4.37763,3.50552 -6.9818,3.86388 -3.04626,0.41919 -6.37841,-0.80871 -8.24111,3.25616 -1.23505,2.6952 -0.79622,6.4675 -0.79622,9.46196 -2.68226,-4.1617 -2.99963,-11.62975 1.24885,-14.49092 4.19063,-2.82222 8.84865,-1.26262 12.67957,-6.08283 3.8974,-4.90385 3.23299,-16.97744 10.7188,-14.14991 m -85.854473,0 -0.410786,0.52613 0.410786,-0.52613 m -22.593274,1.57834 3.697083,9.99622 c 1.608535,0.26936 2.315844,1.22194 2.875503,3.1567 l 3.697082,2.63057 -0.821563,2.10447 1.643142,-1.05224 0.410781,2.10446 c 1.210035,-0.19725 1.8955,-0.0481 2.053941,1.57835 l 1.23236,-0.52611 2.875504,1.57835 v 0.52611 l -0.821564,1.05224 -1.643158,-0.52611 v 0.52611 l 4.518662,2.63058 c -1.976653,3.61053 -7.647081,1.04254 -10.269668,-0.47578 -6.250581,-3.61873 -12.383492,-16.34453 -9.448105,-25.30392 m 95.713357,0 0.82157,3.1567 h -0.4108 l -0.41077,-3.1567 m -0.41079,3.68283 c 1.87196,8.19051 -6.07291,12.60221 -10.68046,7.89174 v -0.52613 l 4.10787,-0.26305 3.28629,-5.96265 3.2863,-1.13991 m -72.709293,1.05222 0.821586,3.1567 h 2.053931 l -0.410799,1.57834 -2.464718,-0.52611 1.643158,1.57835 -0.821572,1.05224 0.410773,2.10446 c -2.261683,-0.0259 -10.520313,-4.73497 -6.771949,-8.80757 1.339814,-1.45572 4.007815,-0.28149 5.53959,-0.13641 m 67.369063,0.52613 c 0.48849,2.80774 -1.37825,4.75091 -2.8755,2.10446 l 1.64314,1.05223 1.23236,-3.15669 m -85.854473,4.73504 1.643158,2.10446 -1.643158,-2.10446 m 18.074624,1.05222 0.410786,0.52613 -0.410786,-0.52613 m -17.663826,1.05224 1.23236,2.63059 h 0.410782 l -1.643142,-2.63059 m 2.464721,1.05224 1.23236,2.63057 -0.821579,-1.05222 h -0.410781 l 1.23236,2.10445 v -1.05223 l 1.232362,1.05223 -2.464722,-3.6828 m -0.410797,3.1567 0.410797,0.5261 -0.410797,-0.5261 m 3.83402,1.92907 0.136938,0.35077 -0.136938,-0.35077 m 0.821564,1.05224 0.136936,0.35074 -0.136936,-0.35074 m -1.369284,0.17538 0.410782,0.52611 -0.410782,-0.52611 m 2.464721,0 0.410783,0.52611 -0.410783,-0.52611 m -2.053939,1.05222 0.410797,0.52613 -0.410797,-0.52613 m 5.751022,0 0.410781,1.05224 -0.410781,-1.05224 m 82.568167,0 0.4108,0.52613 -0.4108,-0.52613 m -87.086829,0.52613 0.410798,0.52611 -0.410798,-0.52611 m 2.87552,0 0.410781,0.52611 -0.410781,-0.52611 m 85.032889,0 0.41078,0.52611 -0.41078,-0.52611 m 0.82158,0 0.41078,0.52611 -0.41078,-0.52611 m -87.497627,0.52611 0.410796,0.52611 -0.410796,-0.52611 m 2.053939,0.52611 0.410782,0.52613 -0.410782,-0.52613 m 4.107864,0 -0.410781,0.52613 0.410781,-0.52613 m 53.813094,3.68282 -0.41078,0.52612 0.41078,-0.52612 m -48.335926,0.87686 0.136929,0.35075 -0.136929,-0.35075 m -4.244807,0.17538 -0.410781,0.52613 0.410781,-0.52613 m 1.643161,0.52613 v 0.52611 h -1.232363 l 1.232363,-0.52611 m -2.875522,0.52611 -0.410781,0.52611 0.410781,-0.52611 m -2.053924,0.52611 v 0.52613 h -1.643158 l 1.643158,-0.52613 m 45.597348,5.26117 c -2.13629,8.40859 -2.18084,15.47565 -1.64314,24.20134 h 0.41077 l 0.52807,-14.73125 0.7043,-9.47009 m -13.145184,0.52611 1.232359,23.67523 h 0.821572 c 0.120483,-7.4784 1.766683,-17.13374 -2.053931,-23.67523 m 75.174004,0 0.4108,0.52611 -0.4108,-0.52611 m -33.68453,0.52611 -0.41077,0.52613 0.41077,-0.52613 m 14.37755,4.20893 0.41078,0.52612 -0.41078,-0.52612 m 20.95014,2.10447 0.41078,0.52612 -0.41078,-0.52612 m -85.443689,1.05223 2.053932,17.88794 h 0.410786 c 0.830229,-5.72764 0.514898,-13.15977 -2.464718,-17.88794 m 32.452169,7.36563 0.41078,0.52612 -0.41078,-0.52612 m -77.227941,6.83951 2.875503,3.6828 v -0.52611 l -2.875503,-3.15669 m 16.02069,0.52611 -0.821579,5.78728 h -0.410782 l 0.410782,-2.63059 -1.643142,1.05224 2.464721,-4.20893 m -34.09532,0.52613 8.626525,12.62678 21.771712,-2.10448 c -10.212719,-5.35326 -19.037353,-10.5223 -30.398237,-10.5223 m 123.236071,0 1.23236,1.57835 v 0.5261 l -1.23236,-2.10445 m -102.696719,1.05221 v 0.52614 l 1.232361,0.5261 -1.232361,-1.05224 m 101.875159,0 -0.4108,0.52614 0.4108,-0.52614 m 12.73439,0 0.41079,0.52614 -0.41079,-0.52614 m -101.738237,0.87686 0.136936,0.35077 -0.136936,-0.35077 m 100.095087,-0.35072 0.41079,0.5261 -0.41079,-0.5261 m -10.68046,0.70149 c 0.31767,0 0.0658,0.26189 -0.13693,0.17538 l 0.13693,-0.17538 m -101.053578,0.35072 0.410781,0.52614 -0.410781,-0.52614 m 102.696718,0.17538 c 0.31768,0 0.0658,0.2619 -0.13693,0.17539 l 0.13693,-0.17539 m -0.82156,0.35076 -0.4108,0.5261 0.4108,-0.5261 m 8.21573,0 -0.41079,0.5261 0.41079,-0.5261 m 1.64315,0 v 0.5261 h -1.23235 l 1.23235,-0.5261 m -106.393814,0.5261 v 0.52611 c -0.805168,0.34375 -1.049141,0.52613 0,0.52613 v 0.52611 l -2.875503,-1.05224 2.875503,-0.52611 m 0.821579,0.70149 0.136938,0.17538 c -0.202737,0.0865 -0.454612,-0.17538 -0.136938,-0.17538 m 2.053925,-0.17538 -1.232361,1.05224 v -0.52611 l 1.232361,-0.52613 m 1.23236,0 h 1.232361 l 0.410797,4.20894 -1.643158,-1.57835 -1.23236,0.5261 0.410796,-1.05221 H 56.36239 l -2.464722,-0.52613 v -0.52611 c 1.59211,0.51428 2.538717,0.53732 3.697082,-1.05224 m 92.42707,0.52613 -0.4108,0.52611 0.4108,-0.52611 m 2.87551,0 -0.41079,0.52611 0.41079,-0.52611 m -96.124144,1.05222 v 0.52613 l 1.232362,1.57835 h 0.410781 l 0.410782,-1.05224 -1.232361,-0.52611 0.821579,-0.52613 h -1.643143 m 100.642804,0 v 0.52613 h -1.64316 l 1.64316,-0.52613 m -2.87552,0.52613 -0.41079,0.52611 0.41079,-0.52611 m -3.69709,0.52611 0.4108,1.57835 -0.4108,-1.57835 m -65.315118,0.5261 0.410787,0.52614 -0.410787,-0.52614 m 69.012208,0 -0.41079,0.52614 0.41079,-0.52614 m -70.244567,1.05225 -0.410773,0.5261 0.410773,-0.5261 m 69.833777,1.57834 v 0.52611 h 1.23236 v 0.52613 l -6.98338,-0.52613 c 0.47551,3.14223 0.94546,5.22145 -1.23236,7.36563 v 0.52611 l 19.307,4.20893 0.82157,-6.31339 4.92945,4.73505 v -7.36564 l 2.05392,2.63059 1.23236,-5.26115 c -7.3978,-2.45136 -13.90446,-1.41254 -21.36092,-1.05224 m -69.42299,-0.5261 -0.410787,0.5261 0.410787,-0.5261 m 40.25712,1.05221 c -0.30983,2.17092 -0.82141,3.41121 -2.46472,4.20894 l 0.82157,1.05224 c -4.45584,1.2377 -7.40578,-1.04504 -10.999,4.23003 -1.77788,2.61001 -1.30127,6.18103 -3.37854,8.39675 l 1.23236,-2.63059 -1.64315,3.15671 -2.8755,1.57834 -1.23236,-9.47009 -0.82157,9.47009 c -5.988112,-2.25595 -3.944916,-8.15077 -8.21606,-12.41975 -2.93943,-2.93795 -5.809133,-0.60211 -8.60814,-2.34683 -1.678716,-1.04639 -2.05383,-3.13797 -1.661211,-5.22584 l 0.82156,1.05224 c 4.873312,-4.37255 11.381495,1.74395 16.431491,2.62978 4.97618,0.87286 9.58782,-1.59888 14.37911,-2.88391 2.63945,-0.70791 5.52005,-0.36204 8.21416,-0.79811 m -67.505982,0.17538 0.27386,0.17538 -0.27386,-0.17538 m 93.796352,-0.17538 0.41079,0.52613 -0.41079,-0.52613 m -92.563991,0.70149 0.27386,0.17539 -0.27386,-0.17539 m 0.958501,0.35075 0.410781,0.52611 -0.410781,-0.52611 m -21.771712,1.57835 -0.410782,5.26115 0.410782,0.52613 4.518661,-2.63059 4.107864,0.52611 c -2.547179,3.0706 -3.696632,2.15805 -3.697082,7.36563 l 19.717772,-5.26115 -2.464722,-5.78728 H 37.876978 m 48.883643,-0.52611 0.410786,0.52611 -0.410786,-0.52611 m 26.564219,0.17538 0.27388,0.17539 -0.27388,-0.17539 m 3.83402,-0.17538 0.41078,0.52611 -0.41078,-0.52611 m -4.92944,0.52611 0.41077,0.5261 -0.41077,-0.5261 m -77.227946,1.05224 0.821579,2.10445 1.232362,-2.63059 -2.053941,0.52614 m 75.995586,-0.52614 0.41078,0.52614 -0.41078,-0.52614 m 5.75102,0 0.41078,0.52614 -0.41078,-0.52614 m -30.398232,1.05225 v 0.5261 l 1.232358,0.52614 -1.232358,-1.05224 m 34.095312,0 0.41079,0.5261 -0.41079,-0.5261 m 0.82157,0 0.41079,0.5261 -0.41079,-0.5261 m -5.75101,0.5261 0.41078,0.52614 -0.41078,-0.52614 m -4.51866,0.52614 0.41078,0.5261 -0.41078,-0.5261 m 3.69708,0 0.41078,0.5261 -0.41078,-0.5261 m -17.25305,5.78727 -9.44811,-3.68282 c 3.121427,-3.13016 7.452252,0.22022 9.44811,3.68282 m 16.02069,-4.73506 0.41079,0.52613 -0.41079,-0.52613 m 7.80495,0.52613 v 0.52611 c -3.93132,0.004 -6.21591,1.48482 -9.4481,4.20894 1.70844,-4.59221 5.80293,-6.115 9.4481,-4.73505 m -13.96676,0.52611 0.41079,0.52611 -0.41079,-0.52611 m 5.34022,0 -0.41077,1.05224 0.41077,-1.05224 m -1.23235,1.57835 0.41079,0.52611 -0.41079,-0.52611 m 27.52274,5.26116 v 0.52612 c 4.12961,0 7.15529,-0.73268 10.68044,-3.68281 l 0.4108,5.78728 15.19911,5.26115 c 0.13601,-2.20367 1.49196,-6.66958 0.3978,-8.57415 -1.10151,-1.91738 -4.84855,-2.40394 -6.5596,-2.9318 -7.9877,-2.46414 -13.2142,-1.93474 -20.12855,3.61421 m -101.875165,-2.63057 1.643142,-2.10448 -1.643142,2.10448 m 6.572585,11.57455 3.697082,-3.1567 c 2.674911,2.19408 9.02189,-2.01719 12.323608,-2.10446 v -7.36563 c 3.902286,3.366 7.586622,6.02791 12.323613,5.26116 -6.385894,-7.83272 -13.472445,-6.35669 -21.36092,-3.52815 -1.856467,0.66566 -5.759329,1.29397 -6.971972,3.37146 -1.037605,1.77763 -0.04471,5.45222 -0.01084,7.52232 m 63.261189,-13.67903 0.41079,0.52613 -0.41079,-0.52613 m -0.82157,0.52613 0.41077,0.52611 -0.41077,-0.52611 m 1.23236,0.52611 0.41077,0.52612 -0.41077,-0.52612 m -1.64315,1.05224 0.41079,0.5261 -0.41079,-0.5261 m 3.69708,1.05222 0.41078,0.52612 -0.41078,-0.52612 m 81.33582,0 c -0.0459,7.11413 -2.44079,13.07423 -4.51866,19.46631 h -0.41079 l -0.4108,-3.1567 h -0.41078 l -2.46472,13.679 -0.41077,-5.26115 -3.69709,-2.63059 c -0.0184,8.53136 -3.16246,14.7672 -4.92945,22.623 h -0.41079 l -3.28629,-15.25737 h -0.4108 c 0,10.20226 -2.87392,17.81268 -6.1618,26.83192 h -0.41078 c 0.13539,-8.39801 0.66531,-17.99771 -5.34023,-23.67522 l 0.41078,3.6828 h -0.41078 l -0.82157,-3.6828 h -0.41079 c 0.33198,5.38722 0.58777,12.69987 2.8755,17.36183 l 0.82159,-7.89175 c 5.12163,7.44236 -0.52279,19.71777 -3.69709,26.30582 5.25109,-2.90172 10.33204,-8.81656 12.32361,-15.78348 h 0.41078 l -2.46472,12.62678 h 0.41079 c 4.48087,-10.3081 12.35439,-19.69303 13.14518,-32.0931 3.79395,4.27327 1.43464,11.49515 0.82157,16.83573 h 0.41079 l 8.62652,-31.04086 1.23236,9.99622 h 0.41079 c 2.46602,-6.76491 10.53046,-20.89408 4.10788,-26.83192 l -3.28631,10.52231 h -0.41077 c 0,-3.96634 0.41159,-9.11287 -1.23236,-12.62678 m -82.29434,0.70147 0.27389,0.17538 -0.27389,-0.17538 m 0.95852,0.35076 v 1.05224 l 0.82157,-1.05224 h -0.82148 m -96.124159,0.52612 c -0.949107,1.00455 -2.184558,2.02897 -2.437132,3.69052 -0.29513,1.94148 0.606702,4.48866 1.069122,6.3057 1.261457,4.95679 3.080615,13.99409 6.708251,16.83569 l 0.821563,-9.47009 c 3.183939,9.47797 2.790531,23.97551 9.448104,31.04086 -1.498256,-6.04069 -1.525814,-11.35405 0,-17.36183 l 9.448104,24.20133 h 0.410783 l 1.978173,-14.73125 0.486548,-14.20513 h -0.410782 l -4.518661,16.83572 c -2.597188,-7.98949 -6.187794,-16.27456 -4.518692,-25.25356 l -1.643143,0.5261 v -0.5261 l 2.464722,-5.78729 c -3.733257,3.44917 -5.247878,10.6097 -5.340224,16.30959 h -0.410798 l -2.053925,-13.679 h -0.410796 l -0.821564,3.1567 c -2.663464,-5.17684 -4.543919,-11.68348 -4.92944,-17.88796 h -0.410798 l -0.821563,10.52233 h -0.410797 l -3.697082,-10.52233 m 94.480996,0 0.41079,0.52612 -0.41079,-0.52612 m 0.82158,0.52612 -0.82158,2.63058 h 0.41079 l 0.41079,-2.63058 m -39.024763,2.63055 v 0.52613 c 5.580994,3.96367 10.848672,6.19218 17.253049,6.8395 -1.961422,-1.53435 -4.455999,-1.86793 -6.572581,-3.08564 -3.934496,-2.26358 -6.162393,-5.77323 -10.680468,-4.27999 m 37.381613,-1.05221 0.41079,0.5261 -0.41079,-0.5261 m 16.02069,7.89173 v 0.52611 c 7.24645,-0.73243 12.47726,-4.00353 18.8962,-7.89174 -5.64751,-3.03508 -13.18179,5.85503 -18.8962,7.36563 m -16.84226,-7.36563 v 2.10446 h 0.41077 l -0.41077,-2.10446 m -5.34024,0.52611 0.41079,0.52613 -0.41079,-0.52613 m 6.16181,0 0.41079,0.52613 -0.41079,-0.52613 m 13.96676,13.15291 v 0.52611 c 6.93224,0.0736 14.52823,1.57729 20.94854,-2.97156 2.74478,-1.94472 5.19416,-5.25934 7.39575,-8.07687 l -0.82157,6.31339 -0.82157,1.05224 h -0.4108 -1.23236 1.23236 l -1.23236,1.05221 v 0.52614 l 13.14518,15.25735 h 0.41079 c 0.46843,-7.60169 -0.84822,-9.29781 -5.34022,-14.20513 l 6.16179,5.78727 1.23237,-5.26115 -10.26966,-7.89173 v -0.52614 l 11.50202,7.36563 2.05393,-5.78728 c -3.60651,-2.43444 -10.612,-6.53697 -14.78831,-5.57292 -3.15041,0.72722 -6.83124,6.07579 -9.8589,8.00866 -5.70141,3.63977 -13.03805,4.40378 -19.30698,4.40378 m -72.709287,-11.04843 -0.410798,0.52611 0.410798,-0.52611 m 0.410781,4.20891 0.821579,4.20894 c 3.894167,-2.77668 7.382754,-5.98266 11.912811,-6.8395 -2.126912,-3.7627 -10.08131,1.0415 -12.73439,2.63056 m 43.954202,-4.20891 0.410787,0.52611 -0.410787,-0.52611 m 57.099384,0 -0.41079,0.52611 0.41079,-0.52611 m 13.14518,0.52611 -0.41078,0.5261 0.41078,-0.5261 M 62.114033,198.0333 c 6.151975,10.95334 17.195981,8.97612 26.290358,8.94398 l -16.431476,-3.44492 -9.858882,-5.49906 m -9.858886,8.94398 h 0.410781 v -2.10445 h 0.410798 v 3.15669 l 1.23236,-2.10447 1.643142,0.52612 v 2.10446 l 6.572586,-4.73504 c -0.447454,-1.47697 -0.919361,-4.27816 -2.215579,-4.89458 -3.5079,-1.66821 -7.884221,4.06187 -8.054088,8.05127 m -7.394166,-7.36563 -0.821579,0.52613 v 0.52611 l 0.821579,-1.05224 m 131.041039,0.52613 c 0.95021,4.44961 1.974,8.81016 5.34022,11.04844 -0.79522,-4.2879 -2.51854,-8.44738 -5.34022,-11.04844 m -128.576316,0.52611 v 3.6828 h 0.410781 l -0.410781,-3.6828 m 106.804606,4.73504 v 0.52612 l -3.2863,-1.57836 3.2863,1.05224 m -124.057658,3.1567 -0.410781,0.52612 0.410781,-0.52612 m 122.825298,0 v 2.10447 h -0.41079 l 0.41079,-2.10447 m 6.98338,1.57835 -0.4108,0.52612 0.4108,-0.52612 m -10.26968,1.05224 -0.41079,0.5261 0.41079,-0.5261 m 9.03732,0.5261 -0.4108,0.52612 0.4108,-0.52612 m -96.534937,1.05224 -0.410783,0.52612 0.410783,-0.52612 m 29.987447,23.67523 c 7.688244,-6.65222 17.6942,-6.47667 25.46879,0 -2.30523,2.97738 -8.76075,-1.14932 -11.91282,-1.48702 -3.98114,-0.42652 -8.694923,3.90703 -12.286842,3.00162 -5.387942,-1.35808 -7.016681,-13.95375 -7.841721,-19.40256 1.590222,-0.16087 4.963948,-1.80684 6.32505,-0.50378 1.058495,1.01336 0.958553,4.2355 1.265635,5.76496 1.245402,6.20301 2.66918,7.44864 -1.018092,12.62678 m 31.63059,-17.88796 c -0.32196,5.18157 -1.47753,10.44687 -3.84479,14.72069 -1.591,2.87243 -4.61028,2.09162 -5.26827,-1.61488 -0.62962,-3.54656 2.40359,-10.07597 2.54047,-14.15803 l 6.57259,1.05222 m -52.580728,0.52614 -0.410786,0.5261 0.410786,-0.5261 m 61.618038,13.67899 c 1.77926,8.8041 4.0839,17.17697 2.31068,26.30582 -0.54108,2.78559 -1.20767,6.73624 -3.13225,8.41784 l 0.41079,-11.57454 h -0.41079 c -0.0162,7.51363 -2.52943,16.4557 -7.39416,21.04463 l 0.41078,-5.26115 h -0.41078 c -2.19742,6.72408 -6.90478,13.23874 -12.3236,15.78347 l 0.82157,-5.26115 -8.21574,7.36562 v -4.73504 h -0.41079 v 5.26116 l -8.215734,-7.89174 1.232358,5.26115 C 92.36116,285.4132 86.737226,278.76643 85.118101,272.21566 h -0.410787 v 4.73505 h -0.410786 c -4.664311,-8.06601 -6.983379,-15.15979 -6.983379,-25.25356 h -0.410786 l 0.410786,15.78347 h -0.410786 c -3.332941,-8.01536 -3.991117,-16.49084 -2.310986,-25.25357 0.478894,-2.49774 0.649647,-6.27922 2.310986,-7.89174 0.361127,5.66253 2.429682,13.17167 6.983379,15.20012 2.034527,0.90629 4.091161,0.16127 6.161807,0.58337 l -0.410787,-1.05223 1.232359,0.52611 -0.410799,-1.05223 c 2.482121,0.14217 4.378125,-2.25439 6.572606,-3.51801 2.355991,-1.35658 4.836862,-1.73788 7.394162,-1.74315 2.64838,-0.005 5.30283,0.0221 7.80496,1.30392 6.3647,3.26076 13.33705,10.51764 17.96653,-0.77781 1.46521,-3.57499 1.4012,-7.50565 2.5728,-11.04844 m -34.095307,6.83953 -3.697089,2.10445 c 1.08101,-1.746 1.951541,-2.51712 3.697089,-2.10445 m -3.286303,0 v 0.5261 l -2.875504,1.05224 2.875504,-1.57834 m 19.71777,0.5261 5.34024,1.57835 c -1.40558,3.0708 -4.72997,1.59503 -5.34024,-1.57835 m 7.80496,0.52611 v 0.52613 h -1.64316 l 1.64316,-0.52613 m 39.70939,4.55969 -0.13694,0.35075 0.13694,-0.35075 m -122.277569,1.22759 2.053939,6.83951 h 0.410782 l -2.464721,-6.83951 m 128.850179,0.35075 -0.13694,0.35076 0.13694,-0.35076 m -91.879351,3.85819 0.410786,0.52612 -0.410786,-0.52612 m 65.725901,4.20892 -0.41077,0.52612 0.41077,-0.52612 m -0.9585,1.40298 -0.13693,0.35072 z"
       id="path1" /></g></svg>
